<svg width="41" height="41" viewBox="0 0 41 41" fill="none" xmlns="http://www.w3.org/2000/svg">
<path d="M40.1095 20.0674C40.1095 31.1433 31.1301 40.1216 20.0541 40.1216C8.97824 40.1216 0 31.1433 0 20.0674C0 8.99152 8.97824 0.0120773 20.0541 0.0120773C31.1301 0.0120773 40.1095 8.99152 40.1095 20.0674Z" fill="#EB53C0"/>
<path d="M7.57149 11.5253C5.14737 13.9494 4.6108 16.1907 4.9705 17.9857C5.32901 19.7794 7.85996 21.0758 11.6089 20.1391C15.9158 19.0624 19.9532 13.858 18.3387 11.5253C16.7231 9.19261 10.6224 8.47558 7.57149 11.5253Z" fill="#A812CC"/>
<path d="M7.0338 13.3197C10.0847 10.2688 16.1854 10.987 17.7999 13.3197C18.0681 13.7055 18.1797 14.1709 18.1607 14.6837C18.695 13.5132 18.7935 12.4009 18.2486 11.615C16.6341 9.28229 10.5323 8.56408 7.48252 11.615C5.73388 13.3624 4.96819 15.0161 4.8103 16.4751C5.22698 15.4767 5.93571 14.4166 7.0338 13.3197Z" fill="#7D0D98"/>
<path d="M32.7836 23.548C30.8248 22.2802 24.888 23.3676 23.3625 25.7905C21.8371 28.2135 21.5688 30.5462 23.8112 31.8912C26.0537 33.2374 28.4767 31.9814 30.4509 30.2767C32.4251 28.572 35.8333 25.5211 32.7836 23.548Z" fill="#A812CC"/>
<path d="M24.5284 27.3171C26.0539 24.8941 31.9907 23.8067 33.9494 25.0746L33.9661 25.0853C33.8592 24.5344 33.4995 24.0121 32.7837 23.5491C30.8249 22.2813 24.8881 23.3687 23.3626 25.7916C21.9143 28.0923 21.5998 30.311 23.4932 31.6821C23.0777 30.4285 23.5371 28.8924 24.5284 27.3171Z" fill="#7D0D98"/>
<path d="M27.6695 6.86123C26.061 7.50466 24.7979 10.0012 26.5928 12.5143C28.3865 15.0263 31.5277 16.5518 33.0531 15.7433C34.5774 14.9361 36.1029 11.1681 33.9494 9.01468C31.796 6.86123 29.912 5.96377 27.6695 6.86123Z" fill="#A812CC"/>
<path d="M33.9494 8.92471C31.796 6.77126 29.912 5.8738 27.6695 6.77126C27.1282 6.98732 26.6261 7.41469 26.2664 7.98095C28.4566 7.1642 30.3109 8.06642 32.4252 10.1807C34.0361 11.7916 33.5874 14.3083 32.6199 15.8101C32.7742 15.7744 32.9202 15.7234 33.0532 15.6534C34.5774 14.8461 36.1029 11.077 33.9494 8.92471Z" fill="#7D0D98"/>
<path d="M15.4836 32.0074C13.9499 31.2168 10.4443 30.6268 8.12583 31.9077C7.07997 32.4859 6.31544 33.4178 5.98779 34.3591C9.104 37.416 13.2127 39.4602 17.776 39.9707C18.0538 39.592 18.3422 39.1183 18.6948 38.5224C19.5733 37.0397 17.0186 32.7981 15.4836 32.0074Z" fill="#A812CC"/>
<path d="M15.4919 31.9812C13.9582 31.1906 10.4526 30.6006 8.13292 31.8815C7.08706 32.4596 6.32374 33.3927 5.99609 34.3341C6.09937 34.435 6.20384 34.5359 6.31068 34.6345C6.6502 34.2676 7.05975 33.94 7.5251 33.6824C9.84356 32.4015 13.3492 32.9915 14.8829 33.7821C16.1342 34.4279 18.0644 37.3672 18.2579 39.2334C18.3957 39.0114 18.5429 38.7669 18.7031 38.4962C19.5816 37.0135 17.0257 32.7719 15.4919 31.9812Z" fill="#7D0D98"/>
<path d="M21.5486 40.0669C31.9265 39.3024 40.1094 30.6399 40.1094 20.0673C40.1094 8.99144 31.13 0.0119972 20.054 0.0119972C19.6647 0.0119972 19.2765 0.0238647 18.8918 0.0452347C19.3394 0.0155563 19.7881 0.000125885 20.2369 0.000125885C25.4472 0.000125885 30.6527 2.01824 34.5821 6.04023C42.3222 13.9619 42.1738 26.6595 34.2521 34.3995C30.6883 37.8814 26.1595 39.7666 21.5486 40.0669Z" fill="#414A73"/>
<path d="M20.238 40.1108C19.4189 40.1108 18.5974 40.061 17.783 39.9601C18.0585 39.5826 18.3457 39.1113 18.6947 38.5213C18.7387 38.4477 18.7731 38.3681 18.8004 38.2827C19.3548 36.642 16.9568 32.7376 15.4919 31.9826C14.6051 31.5255 13.0583 31.135 11.4639 31.135C10.3006 31.135 9.11106 31.3427 8.13287 31.8829C7.12975 32.4372 6.3866 33.3169 6.03877 34.2191C5.98891 34.1693 5.94142 34.1206 5.89275 34.0707C1.42083 29.4944 -0.418024 23.3237 0.353609 17.4367C0.904437 15.6263 2.57235 15.1479 3.93398 15.1479C4.35898 15.1479 4.7543 15.1942 5.07601 15.2619C4.93831 15.6797 4.85283 16.0846 4.81009 16.4763C4.84452 16.3932 4.88131 16.3113 4.9193 16.2282C4.83383 16.8503 4.85995 17.4391 4.97036 17.9863C5.24577 19.367 6.80802 20.4532 9.22264 20.4532C9.64288 20.4532 10.0881 20.4199 10.5582 20.3499C11.9483 22.6791 13.0749 25.2706 14.2489 26.9741C16.4 30.0974 18.7529 33.3323 22.7061 33.3323C23.029 33.3323 23.3637 33.3098 23.7092 33.2647C24.8346 33.1175 25.954 32.7791 27.0272 32.29C28.2321 31.9588 29.4038 31.1813 30.4509 30.2779C31.7686 29.1394 33.7285 27.4003 33.9743 25.7822C36.1954 21.689 35.9081 17.8937 34.0942 14.7217C34.6343 13.9169 35.0273 12.7962 35.0166 11.6779C35.0261 10.6926 34.7281 9.70374 33.9493 8.92498C32.3562 7.33186 30.9103 6.42608 29.3575 6.42608C28.8115 6.42608 28.2523 6.53767 27.6694 6.77153C27.1376 6.98403 26.6449 7.39952 26.2864 7.94917C25.789 7.71174 25.2809 7.48856 24.7621 7.28319C20.8933 5.74704 16.3157 5.87762 12.473 4.2477C11.4402 3.81083 10.7339 3.25169 10.2994 2.63202C12.9704 1.10656 15.9133 0.245888 18.8918 0.0464516C19.2764 0.0250816 19.6646 0.0132141 20.054 0.0132141C31.1299 0.0132141 40.1094 8.99265 40.1094 20.0686C40.1094 30.6411 31.9265 39.3036 21.5486 40.0681C21.1117 40.0966 20.6761 40.1108 20.238 40.1108Z" fill="#DB71C8"/>
<path d="M9.22299 20.4521C6.80837 20.4521 5.24612 19.3659 4.9707 17.9853C4.8603 17.438 4.83417 16.8492 4.91965 16.2272C5.05379 15.9363 5.21288 15.6419 5.39807 15.3416C5.42063 15.3487 5.44199 15.3558 5.46336 15.3629C7.60138 16.0633 9.20518 18.0815 10.5585 20.3489C10.0884 20.4189 9.64323 20.4521 9.22299 20.4521Z" fill="#A63DD1"/>
<path d="M4.8103 16.4751C4.85304 16.0833 4.93852 15.6785 5.07622 15.2607C5.19375 15.2856 5.30177 15.3129 5.39793 15.3414C5.21274 15.6417 5.05365 15.9361 4.91951 16.227C4.88152 16.3101 4.84473 16.392 4.8103 16.4751Z" fill="#8339A8"/>
<path d="M27.0273 32.29C29.7328 31.0566 32.1439 28.8664 33.629 26.3864C33.7512 26.1846 33.8652 25.9828 33.9744 25.7822C33.7287 27.4003 31.7687 29.1394 30.451 30.2779C29.404 31.1813 28.2323 31.9588 27.0273 32.29Z" fill="#A63DD1"/>
<path d="M26.3318 7.97119C26.3259 7.96763 26.3211 7.96525 26.3152 7.96288C26.3247 7.95932 26.3342 7.95576 26.3437 7.9522C26.3401 7.95813 26.3354 7.96407 26.3318 7.97119Z" fill="#DB71C8"/>
<path d="M34.0942 14.7207C34.0847 14.7041 34.0764 14.6887 34.0669 14.672C34.607 13.8862 35.0059 12.7845 35.0166 11.6769C35.0273 12.7952 34.6343 13.9158 34.0942 14.7207ZM33.427 13.6772C31.7626 11.3267 29.2436 9.37388 26.3315 7.97069C26.3351 7.96357 26.3399 7.95763 26.3434 7.9517C26.8563 7.77007 27.3501 7.68222 27.8333 7.68222C29.386 7.68222 30.8319 8.58681 32.4251 10.1799C33.4009 11.1558 33.6205 12.464 33.427 13.6772Z" fill="#A63DD1"/>
<path d="M34.0668 14.6719C33.8698 14.3335 33.6573 14.0011 33.427 13.6771C33.6205 12.4638 33.4008 11.1556 32.425 10.1798C30.8319 8.58666 29.386 7.68206 27.8332 7.68206C27.3501 7.68206 26.8562 7.76991 26.3434 7.95154C26.3339 7.9551 26.3244 7.95866 26.3149 7.96222C26.3054 7.95748 26.2959 7.95273 26.2864 7.94798C26.6449 7.39834 27.1375 6.98284 27.6694 6.77035C28.2523 6.53648 28.8114 6.42489 29.3575 6.42489C30.9103 6.42489 32.3562 7.33067 33.9493 8.9238C34.728 9.70255 35.026 10.6914 35.0165 11.6767C35.0058 12.7843 34.607 13.886 34.0668 14.6719Z" fill="#8339A8"/>
<path d="M17.7831 39.9585C13.6341 39.4492 9.61564 37.646 6.38428 34.5559C6.70955 34.2211 7.09299 33.9219 7.5251 33.6821C8.50211 33.142 9.69161 32.9343 10.855 32.9343C12.4505 32.9343 13.9961 33.3248 14.8829 33.7819C16.1342 34.4277 18.0644 37.367 18.2579 39.2332C18.3957 39.0112 18.5429 38.7666 18.7031 38.496C18.7423 38.4295 18.7743 38.3582 18.8005 38.2811C18.7732 38.3666 18.7387 38.4461 18.6948 38.5197C18.3458 39.1097 18.0585 39.581 17.7831 39.9585Z" fill="#A63DD1"/>
<path d="M18.2579 39.2363C18.0644 37.3702 16.1342 34.4308 14.8829 33.785C13.9961 33.328 12.4505 32.9374 10.855 32.9374C9.6916 32.9374 8.5021 33.1452 7.52509 33.6853C7.09298 33.9251 6.70954 34.2243 6.38427 34.559C6.26793 34.4475 6.15278 34.3347 6.03882 34.2207C6.38665 33.3185 7.12979 32.4388 8.13292 31.8844C9.11111 31.3443 10.3006 31.1366 11.464 31.1366C13.0583 31.1366 14.6051 31.5271 15.4919 31.9842C16.9568 32.7392 19.3548 36.6436 18.8004 38.2843C18.7743 38.3614 18.7423 38.4326 18.7031 38.4991C18.5428 38.7698 18.3956 39.0143 18.2579 39.2363Z" fill="#8339A8"/>
</svg>
